<?xml version="1.0" encoding="UTF-8" standalone="no"?>
<!-- Generator: Adobe Illustrator 23.0.2, SVG Export Plug-In . SVG Version: 6.00 Build 0)  -->

<svg
   version="1.1"
   x="0px"
   y="0px"
   viewBox="0 0 1080 1080"
   style="enable-background:new 0 0 1080 1080;"
   xml:space="preserve"
   id="svg78"
   sodipodi:docname="infusiones.svg"
   inkscape:version="1.3 (0e150ed6c4, 2023-07-21)"
   xmlns:inkscape="http://www.inkscape.org/namespaces/inkscape"
   xmlns:sodipodi="http://sodipodi.sourceforge.net/DTD/sodipodi-0.dtd"
   xmlns="http://www.w3.org/2000/svg"
   xmlns:svg="http://www.w3.org/2000/svg"><defs
   id="defs78" />&#10;<style
   type="text/css"
   id="style1">&#10;	.st0{display:none;}&#10;	.st1{display:inline;fill:#FFFFCC;}&#10;	.st2{fill:#330000;}&#10;	.st3{display:inline;}&#10;	.st4{fill:#FFFFCC;}&#10;	.st5{enable-background:new    ;}&#10;</style>&#10;<g
   id="svg76">&#10;	&#10;		<sodipodi:namedview
   bordercolor="#000000"
   borderopacity="0.25"
   id="namedview76"
   inkscape:current-layer="svg76"
   inkscape:cx="539.29319"
   inkscape:cy="540"
   inkscape:deskcolor="#d1d1d1"
   inkscape:pagecheckerboard="0"
   inkscape:pageopacity="0.0"
   inkscape:showpageshadow="2"
   inkscape:window-height="1012"
   inkscape:window-maximized="1"
   inkscape:window-width="1920"
   inkscape:window-x="0"
   inkscape:window-y="0"
   inkscape:zoom="0.70740741"
   pagecolor="#ffffff">&#10;		</sodipodi:namedview>&#10;	<g
   id="Capa_10"
   class="st0">&#10;		<circle
   id="circle1"
   class="st1"
   cx="540"
   cy="540"
   r="790" />&#10;	</g>&#10;	<g
   id="back"
   transform="matrix(1.07,0,0,1.07,-47.75907,-46.013117)">&#10;		<circle
   id="circle2"
   class="st2"
   cx="547.59998"
   cy="549.20001"
   r="500" />&#10;	</g>&#10;	<g
   id="coldbrews"
   class="st0">&#10;		<g
   id="g5"
   class="st3">&#10;			<path
   id="path2"
   class="st4"
   d="M409.3,483.4v31.3c-7.9,3.9-16.6,5.8-25.9,5.8c-16.5,0-30.2-5.3-41.1-15.9     c-10.7-10.4-16.1-23.4-16.1-39c0-16,5.6-29.5,16.8-40.4c11-10.6,25.1-15.9,42-15.9c8.4,0,16.5,2,24.3,5.8v31.3     c-6.4-4.5-12.8-6.8-19.4-6.8c-7.3,0-13.4,2.4-18.2,7.2c-4.8,4.8-7.2,10.8-7.2,18c0,6.9,2.2,12.7,6.5,17.5     c5,5.3,11.4,7.9,19.1,7.9C397.5,490.4,403.9,488.1,409.3,483.4z" />&#10;			<path
   id="path3"
   class="st4"
   d="M551.8,464.7c0,15.1-5.4,28-16.1,38.5c-11.7,11.5-27.3,17.3-46.7,17.3     c-19.3,0-34.8-5.8-46.5-17.3c-10.7-10.6-16.1-23.4-16.1-38.5s5.4-27.9,16.1-38.3c11.8-11.5,27.3-17.3,46.5-17.3     c19,0,34.6,5.8,46.7,17.3C546.4,436.9,551.8,449.6,551.8,464.7z M489.2,440.9c-6.4,0-12,2.3-16.8,6.8c-4.8,4.5-7.2,10.2-7.2,17     c0,6.2,2.4,11.8,7.2,16.6c4.7,4.7,10.3,7,16.8,7c6.4,0,11.9-2.3,16.6-7c4.8-4.5,7.2-10,7.2-16.6c0-6.5-2.4-12.2-7.2-17     C500.9,443.2,495.4,440.9,489.2,440.9z" />&#10;			<path
   id="path4"
   class="st4"
   d="M573.3,346.8h37.4V517h-37.4V346.8z" />&#10;			<path
   id="path5"
   class="st4"
   d="M754.2,346.8V517h-37.4v-11.4c-7.8,10-18.3,15-31.5,15c-14.5,0-26.7-4.8-36.7-14.5     c-11.2-10.9-16.8-24.8-16.8-41.6s5.7-30.6,17-41.3c9.8-9.3,22.1-14,36.9-14c12.3,0,22.7,4.5,31.1,13.5v-75.9H754.2z M694,488.8     c5.9,0,11.3-2.1,16.1-6.3c5.3-4.8,7.9-10.7,7.9-17.8c0-6.2-2.3-11.8-7-16.8c-4.4-4.7-10-7-17-7c-6.5,0-12.1,2.3-16.6,6.8     c-4.8,4.8-7.2,10.7-7.2,17.8c0,6.1,2.4,11.5,7.2,16.4C682.1,486.4,687.6,488.8,694,488.8z" />&#10;		</g>&#10;		<g
   id="g10"
   class="st3">&#10;			<path
   id="path6"
   class="st4"
   d="M207.2,559.9h37.4v75.9c8.4-9,18.8-13.5,31.1-13.5c14.8,0,27.1,4.7,36.9,14     c11.4,10.7,17,24.5,17,41.3s-5.6,30.7-16.8,41.6c-10,9.7-22.2,14.5-36.7,14.5c-13.2,0-23.7-5-31.5-15v11.4h-37.4L207.2,559.9     L207.2,559.9z M267.5,701.9c6.4,0,11.9-2.3,16.6-7c4.8-4.8,7.2-10.3,7.2-16.3c0-7-2.4-12.9-7.2-17.8c-4.5-4.5-10-6.8-16.6-6.8     c-7,0-12.7,2.3-17.1,7c-4.7,5-7,10.6-7,16.8c0,7,2.6,12.9,7.9,17.8C256.2,699.8,261.5,701.9,267.5,701.9z" />&#10;			<path
   id="path7"
   class="st4"
   d="M351.1,730.2V625.8h37.4v17c3.4-6.5,8.3-11.4,14.7-14.5c5.1-2.8,11.6-4.2,19.4-4.2     c0.3,0,0.7,0,1.2,0.1s1.3,0.2,2.5,0.2c1.2,0.1,2.5,0.1,3.9,0.1v35.3c-5-2.5-10.4-3.7-16.1-3.7c-7.3,0-13,1.9-17,5.6     c-5.6,5.1-8.4,13.1-8.4,23.8v44.6L351.1,730.2L351.1,730.2z" />&#10;			<path
   id="path8"
   class="st4"
   d="M557.3,680.9v4h-77.8c0,7.3,2.2,13.2,6.5,17.5c3.4,3.4,8.6,5.1,15.4,5.1c4.7,0,8.7-0.9,12.1-2.8     c3-1.7,5.1-4,6.5-7h35.7c-2.3,8.4-6.5,15.6-12.6,21.5c-10,9.7-24.1,14.5-42.5,14.5c-18.2,0-32.6-5.3-43.2-15.9     c-10.3-10.3-15.4-23.4-15.4-39.5c0-16.8,5.2-30.3,15.6-40.4c10.4-10.1,24.7-15.2,42.7-15.2c16.7,0,30,4.8,40.2,14.2     C551.7,647.6,557.3,662.2,557.3,680.9z M480.7,663.4h42.3c-1.1-4.5-3.1-8.3-6.1-11.2c-3.7-3.7-8.9-5.6-15.4-5.6     c-6.4,0-11.4,1.9-15.2,5.6C483.2,655.6,481.3,659.3,480.7,663.4z" />&#10;			<path
   id="path9"
   class="st4"
   d="M565.9,625.8h41.8l24.8,55.1l26.4-55.1h22.9l26.4,56.8l26.2-56.8h41.6l-54.6,104.4H696     l-26.2-57.5l-25,57.5h-25.2L565.9,625.8z" />&#10;			<path
   id="path10"
   class="st4"
   d="M782.1,721.5l13.3-25.9c4.7,3.4,9.7,6,15,7.7c4.8,1.7,9.7,2.6,14.5,2.6c4.4,0,7.5-0.9,9.6-2.8     c1.2-1.2,1.9-2.9,1.9-4.9s-0.6-3.6-1.9-4.7c-1.3-1.3-4.5-2.5-9.8-3.7l-9.8-2.3c-8.3-1.9-14.3-4.9-18.2-9.1     c-4.5-4.8-6.8-10.8-6.8-18c0-10.1,3.3-18.6,9.8-25.5c8.1-8.4,20.5-12.6,37.4-12.6c11.5,0,22.7,2.3,33.4,6.8l-12.6,23.8     c-7.5-3.4-14-5.1-19.6-5.1c-3.4,0-6.3,0.7-8.6,2.1c-2.2,1.3-3.3,3-3.3,5.1c0,2.7,1.5,4.6,4.4,5.8c1.2,0.5,3.2,1,5.8,1.5     c2.7,0.5,4.8,1,6.5,1.5l6.8,1.9c6.7,1.9,11.8,4.6,15.4,8.2c5.3,5,7.9,11.9,7.9,20.8c0,10.6-3.5,19.2-10.5,25.9     c-8.7,8.7-21.6,13.1-38.5,13.1C809.4,733.7,795.4,729.6,782.1,721.5z" />&#10;		</g>&#10;	</g>&#10;	<g
   id="smoothies"
   class="st0">&#10;		<g
   id="g19"
   class="st3">&#10;			<path
   id="path11"
   class="st4"
   d="M124.3,601.1l10.4-20.3c3.6,2.7,7.6,4.7,11.7,6c3.8,1.3,7.6,2,11.3,2c3.4,0,5.9-0.7,7.5-2.2     c1-1,1.5-2.3,1.5-3.8c0-1.6-0.5-2.8-1.5-3.7c-1-1-3.5-2-7.7-2.9l-7.7-1.8c-6.5-1.5-11.2-3.8-14.3-7.1c-3.5-3.8-5.3-8.5-5.3-14.1     c0-7.9,2.6-14.5,7.7-19.9c6.3-6.6,16.1-9.9,29.2-9.9c9,0,17.7,1.8,26.1,5.3l-9.9,18.6c-5.9-2.7-11-4-15.4-4     c-2.7,0-4.9,0.5-6.8,1.6c-1.7,1-2.6,2.3-2.6,4c0,2.1,1.2,3.6,3.5,4.6c1,0.4,2.5,0.8,4.6,1.2s3.8,0.8,5.1,1.2l5.3,1.5     c5.2,1.5,9.3,3.6,12.1,6.4c4.1,3.9,6.2,9.3,6.2,16.3c0,8.3-2.7,15-8.2,20.3c-6.8,6.8-16.9,10.2-30.1,10.2     C145.6,610.6,134.6,607.4,124.3,601.1z" />&#10;			<path
   id="path12"
   class="st4"
   d="M210.5,607.9v-81.7h29.2v9.9c6.2-7.5,14.4-11.3,24.5-11.3c6,0,11.2,1.2,15.7,3.7     c4.9,2.6,8.6,6.5,11.3,11.7c2.8-5,6.5-8.8,11.1-11.3c4.8-2.7,10.4-4,17-4c10,0,17.5,2.5,22.7,7.5c5.1,5,7.7,12.5,7.7,22.5v53.2     h-29.2v-40.4c0-9-1.4-14.9-4.2-17.5c-2.1-1.8-4.6-2.7-7.7-2.7c-3.4,0-6.3,1.1-8.6,3.3c-3.5,3.4-5.3,8.6-5.3,15.5v41.8h-29.2     v-40.4c0-9-1.3-14.9-3.8-17.5c-2.1-2.2-5-3.3-8.8-3.3c-3.4,0-6.1,1-8,2.9c-3.4,3.3-5.1,9.3-5.1,17.9v40.4L210.5,607.9     L210.5,607.9z" />&#10;			<path
   id="path13"
   class="st4"
   d="M464.9,566.9c0,11.8-4.2,21.9-12.6,30.2c-9.1,9-21.3,13.5-36.5,13.5c-15.1,0-27.2-4.5-36.4-13.5     c-8.4-8.3-12.6-18.3-12.6-30.2c0-11.8,4.2-21.8,12.6-30c9.3-9,21.4-13.5,36.4-13.5c14.9,0,27,4.5,36.5,13.5     C460.7,545.1,464.9,555.1,464.9,566.9z M415.9,548.3c-5,0-9.4,1.8-13.2,5.3c-3.8,3.5-5.7,8-5.7,13.3c0,4.9,1.9,9.2,5.7,13     c3.6,3.7,8,5.5,13.2,5.5c5,0,9.3-1.8,13-5.5c3.8-3.5,5.7-7.9,5.7-13c0-5.1-1.9-9.6-5.7-13.3C425.1,550.1,420.8,548.3,415.9,548.3     z" />&#10;			<path
   id="path14"
   class="st4"
   d="M576.5,566.9c0,11.8-4.2,21.9-12.6,30.2c-9.1,9-21.3,13.5-36.5,13.5c-15.1,0-27.2-4.5-36.4-13.5     c-8.4-8.3-12.6-18.3-12.6-30.2c0-11.8,4.2-21.8,12.6-30c9.3-9,21.4-13.5,36.4-13.5c14.9,0,27,4.5,36.5,13.5     C572.3,545.1,576.5,555.1,576.5,566.9z M527.6,548.3c-5,0-9.4,1.8-13.2,5.3c-3.8,3.5-5.7,8-5.7,13.3c0,4.9,1.9,9.2,5.7,13     c3.7,3.7,8,5.5,13.2,5.5c5,0,9.3-1.8,13-5.5c3.8-3.5,5.7-7.9,5.7-13c0-5.1-1.9-9.6-5.7-13.3C536.8,550.1,532.4,548.3,527.6,548.3     z" />&#10;			<path
   id="path15"
   class="st4"
   d="M642.3,550.1h-16.6v57.7h-29.2v-57.7h-9.3v-23.9h9.3v-26.9h29.2v26.9h16.6V550.1z" />&#10;			<path
   id="path16"
   class="st4"
   d="M653.3,607.9V474.7h29.2v61.8c2.7-3.4,5.7-6.1,9.1-8c4.6-2.7,10.2-4,16.8-4     c10.2,0,18.3,2.9,24.1,8.8c3.3,3.3,5.4,6.7,6.3,10.1c0.9,3.5,1.4,7.7,1.4,12.7v51.9H711v-41.3c0-7.9-1.2-13.2-3.7-15.9     c-2.1-2.3-5.2-3.5-9.3-3.5c-4.5,0-8,1.2-10.6,3.5c-3.3,3-4.9,7.5-4.9,13.3v43.8L653.3,607.9L653.3,607.9z" />&#10;			<path
   id="path17"
   class="st4"
   d="M758.6,503.8c-3.2-3.2-4.8-7.1-4.8-11.6s1.6-8.4,4.8-11.6c3.2-3.2,7.1-4.8,11.6-4.8     c4.5,0,8.4,1.6,11.6,4.8s4.8,7.1,4.8,11.6c0,4.5-1.6,8.4-4.8,11.6c-3.2,3.2-7.1,4.8-11.6,4.8C765.7,508.6,761.8,507,758.6,503.8z      M755.6,526.2h29.2v81.7h-29.2V526.2z" />&#10;			<path
   id="path18"
   class="st4"
   d="M891.3,569.3v3.1h-60.8c0,5.7,1.7,10.3,5.1,13.7c2.7,2.7,6.7,4,12.1,4c3.7,0,6.8-0.7,9.5-2.2     c2.3-1.3,4-3.2,5.1-5.5h28c-1.8,6.6-5.1,12.2-9.9,16.8c-7.8,7.5-18.9,11.3-33.3,11.3c-14.3,0-25.5-4.1-33.8-12.4     c-8-8-12.1-18.3-12.1-30.9c0-13.2,4.1-23.7,12.2-31.6s19.3-11.9,33.4-11.9c13,0,23.5,3.7,31.4,11.2     C887,543.2,891.3,554.7,891.3,569.3z M831.4,555.6h33.1c-0.8-3.5-2.4-6.5-4.8-8.8c-2.9-2.9-6.9-4.4-12.1-4.4c-5,0-9,1.5-11.9,4.4     C833.4,549.5,831.9,552.4,831.4,555.6z" />&#10;			<path
   id="path19"
   class="st4"
   d="M903,601.1l10.4-20.3c3.7,2.7,7.5,4.7,11.7,6c3.8,1.3,7.5,2,11.3,2c3.4,0,5.9-0.7,7.5-2.2     c1-1,1.5-2.3,1.5-3.8c0-1.6-0.5-2.8-1.5-3.7c-1-1-3.5-2-7.7-2.9l-7.7-1.8c-6.5-1.5-11.2-3.8-14.3-7.1c-3.5-3.8-5.3-8.5-5.3-14.1     c0-7.9,2.6-14.5,7.7-19.9c6.3-6.6,16.1-9.9,29.2-9.9c9,0,17.7,1.8,26.1,5.3l-9.9,18.6c-5.8-2.7-11-4-15.3-4     c-2.7,0-4.9,0.5-6.8,1.6c-1.7,1-2.6,2.3-2.6,4c0,2.1,1.2,3.6,3.5,4.6c1,0.4,2.5,0.8,4.6,1.2s3.8,0.8,5.1,1.2l5.3,1.5     c5.2,1.5,9.3,3.6,12.1,6.4c4.1,3.9,6.2,9.3,6.2,16.3c0,8.3-2.7,15-8.2,20.3c-6.8,6.8-16.9,10.2-30.2,10.2     C924.4,610.6,913.4,607.4,903,601.1z" />&#10;		</g>&#10;	</g>&#10;	<g
   id="cafetería_fria"
   class="st0">&#10;		<g
   id="g28"
   class="st3">&#10;			<path
   id="path20"
   class="st4"
   d="M187,521.8v28.1c-7.1,3.5-14.9,5.3-23.3,5.3c-14.8,0-27.1-4.8-36.9-14.3     c-9.7-9.4-14.5-21.1-14.5-35c0-14.4,5-26.5,15.1-36.3c9.9-9.5,22.5-14.3,37.8-14.3c7.6,0,14.8,1.8,21.8,5.3v28.1     c-5.7-4.1-11.5-6.1-17.4-6.1c-6.6,0-12,2.2-16.4,6.5c-4.3,4.3-6.5,9.7-6.5,16.2c0,6.2,2,11.4,5.9,15.7c4.5,4.8,10.2,7.1,17.2,7.1     C176.4,528.1,182.1,526,187,521.8z" />&#10;			<path
   id="path21"
   class="st4"
   d="M278.7,467.2v-9h33.6V552h-33.6v-10.3c-6.4,9-16.2,13.4-29.2,13.4c-13.1,0-24.4-5-33.8-14.9     c-9-9.5-13.4-21-13.4-34.4c0-15.4,4.8-27.9,14.5-37.6c8.8-8.8,20.1-13.2,33.8-13.2C262.1,455,271.5,459.1,278.7,467.2z      M258.2,483.6c-5.6,0-10.5,2-14.7,6.1c-4.5,4.3-6.7,9.4-6.7,15.3c0,6.2,2.2,11.3,6.5,15.3c4.5,4.2,9.5,6.3,15.1,6.3     c5.7,0,10.8-2.2,15.1-6.5c4.2-4.2,6.3-9.2,6.3-15.1c0-6-2.2-11.1-6.5-15.3C268.9,485.6,263.9,483.6,258.2,483.6z" />&#10;			<path
   id="path22"
   class="st4"
   d="M395,485.7h-23.5V552h-33.6v-66.3h-11.8v-27.5h11.8v-15.7c0-12.9,2.9-23.2,8.6-30.9     c7.4-9.9,18.3-14.9,32.5-14.9c5.5,0,10.8,1,16.2,3.1v29c-3.5-2.1-7-3.1-10.5-3.1c-4.2,0-7.4,1.2-9.4,3.6c-2.5,2.8-3.8,8-3.8,15.7     v13.2H395V485.7z" />&#10;			<path
   id="path23"
   class="st4"
   d="M507.3,507.7v3.6h-69.9c0,6.6,2,11.8,5.9,15.7c3.1,3.1,7.7,4.6,13.9,4.6c4.2,0,7.8-0.8,10.9-2.5     c2.7-1.5,4.6-3.6,5.9-6.3H506c-2.1,7.6-5.9,14-11.3,19.3c-9,8.7-21.7,13-38.2,13c-16.4,0-29.3-4.8-38.8-14.3     c-9.2-9.2-13.9-21.1-13.9-35.5c0-15.1,4.7-27.2,14.1-36.3c9.4-9.1,22.2-13.6,38.4-13.6c15,0,27,4.3,36.1,12.8     C502.3,477.8,507.3,490.9,507.3,507.7z M438.5,492h38c-1-4.1-2.8-7.4-5.5-10.1c-3.4-3.4-8-5-13.9-5c-5.7,0-10.3,1.7-13.6,5     C440.7,485,439,488.3,438.5,492z" />&#10;			<path
   id="path24"
   class="st4"
   d="M582.8,485.7h-19.1V552h-33.6v-66.3h-10.7v-27.5h10.7v-30.9h33.6v30.9h19.1V485.7z" />&#10;			<path
   id="path25"
   class="st4"
   d="M694.9,507.7v3.6H625c0,6.6,2,11.8,5.9,15.7c3.1,3.1,7.7,4.6,13.8,4.6c4.2,0,7.8-0.8,10.9-2.5     c2.7-1.5,4.6-3.6,5.9-6.3h32.1c-2.1,7.6-5.9,14-11.3,19.3c-9,8.7-21.7,13-38.2,13c-16.4,0-29.3-4.8-38.8-14.3     c-9.2-9.2-13.8-21.1-13.8-35.5c0-15.1,4.7-27.2,14.1-36.3c9.4-9.1,22.2-13.6,38.4-13.6c15,0,27,4.3,36.1,12.8     C690,477.8,694.9,490.9,694.9,507.7z M626.1,492h38c-1-4.1-2.8-7.4-5.5-10.1c-3.4-3.4-8-5-13.8-5c-5.7,0-10.3,1.7-13.6,5     C628.3,485,626.6,488.3,626.1,492z" />&#10;			<path
   id="path26"
   class="st4"
   d="M714.2,552v-93.8h33.6v15.3c3.1-5.9,7.5-10.2,13.2-13c4.6-2.5,10.4-3.8,17.4-3.8     c0.3,0,0.6,0,1,0.1c0.4,0.1,1.2,0.1,2.2,0.2c1,0.1,2.2,0.1,3.5,0.1v31.7c-4.5-2.2-9.3-3.4-14.5-3.4c-6.6,0-11.7,1.7-15.3,5     c-5,4.6-7.6,11.8-7.6,21.4V552H714.2z" />&#10;			<path
   id="path27"
   class="st4"
   d="M799.7,458.2h33.6V552h-33.6V458.2z M828.4,399l21.2,15.3l-32.3,28.5l-15.5-11.5L828.4,399z" />&#10;			<path
   id="path28"
   class="st4"
   d="M928.7,467.2v-9h33.6V552h-33.6v-10.3c-6.4,9-16.2,13.4-29.2,13.4c-13.2,0-24.4-5-33.8-14.9     c-9-9.5-13.4-21-13.4-34.4c0-15.4,4.8-27.9,14.5-37.6c8.8-8.8,20.1-13.2,33.8-13.2C912.1,455,921.5,459.1,928.7,467.2z      M908.2,483.6c-5.6,0-10.5,2-14.7,6.1c-4.5,4.3-6.7,9.4-6.7,15.3c0,6.2,2.2,11.3,6.5,15.3c4.5,4.2,9.5,6.3,15.1,6.3     c5.7,0,10.8-2.2,15.1-6.5c4.2-4.2,6.3-9.2,6.3-15.1c0-6-2.2-11.1-6.5-15.3C918.9,485.6,913.9,483.6,908.2,483.6z" />&#10;		</g>&#10;		<g
   id="g32"
   class="st3">&#10;			<path
   id="path29"
   class="st4"
   d="M441.3,682.2h-23.5v66.3h-33.6v-66.3h-11.8v-27.5h11.8V639c0-12.9,2.9-23.2,8.6-30.8     c7.4-9.9,18.3-14.9,32.5-14.9c5.5,0,10.8,1,16.2,3.2v29c-3.5-2.1-7-3.2-10.5-3.2c-4.2,0-7.4,1.2-9.4,3.6c-2.5,2.8-3.8,8-3.8,15.7     v13.2h23.5L441.3,682.2L441.3,682.2z" />&#10;			<path
   id="path30"
   class="st4"
   d="M454.1,748.5v-93.8h33.6V670c3.1-5.9,7.5-10.2,13.2-13c4.6-2.5,10.4-3.8,17.4-3.8     c0.3,0,0.6,0,1,0.1c0.4,0.1,1.2,0.1,2.2,0.2s2.2,0.1,3.5,0.1v31.7c-4.5-2.2-9.3-3.4-14.5-3.4c-6.6,0-11.7,1.7-15.3,5     c-5,4.6-7.6,11.8-7.6,21.4v40.1L454.1,748.5L454.1,748.5z" />&#10;			<path
   id="path31"
   class="st4"
   d="M539.5,654.7h33.6v93.8h-33.6V654.7z M568.3,595.5l21.2,15.3l-32.3,28.5l-15.5-11.5L568.3,595.5     z" />&#10;			<path
   id="path32"
   class="st4"
   d="M668.6,663.7v-9h33.6v93.8h-33.6v-10.3c-6.4,9-16.2,13.4-29.2,13.4c-13.2,0-24.4-5-33.8-14.9     c-9-9.5-13.4-21-13.4-34.4c0-15.4,4.8-27.9,14.5-37.6c8.8-8.8,20.1-13.2,33.8-13.2C651.9,651.5,661.3,655.6,668.6,663.7z      M648,680.1c-5.6,0-10.5,2-14.7,6.1c-4.5,4.3-6.7,9.4-6.7,15.3c0,6.2,2.2,11.3,6.5,15.3c4.5,4.2,9.5,6.3,15.1,6.3     c5.7,0,10.8-2.2,15.1-6.5c4.2-4.2,6.3-9.2,6.3-15.1c0-6-2.2-11.1-6.5-15.3C658.8,682.1,653.8,680.1,648,680.1z" />&#10;		</g>&#10;	</g>&#10;	<g
   id="cafetería"
   class="st0">&#10;		<g
   id="g51"
   class="st3">&#10;			<path
   id="path43"
   class="st4"
   d="M189.9,602.5v28.1c-7.1,3.5-14.9,5.3-23.3,5.3c-14.8,0-27.1-4.8-36.9-14.3     c-9.7-9.4-14.5-21.1-14.5-35c0-14.4,5-26.5,15.1-36.3c9.9-9.5,22.5-14.3,37.8-14.3c7.6,0,14.8,1.8,21.8,5.3v28.1     c-5.7-4.1-11.5-6.1-17.4-6.1c-6.6,0-12,2.2-16.4,6.5c-4.3,4.3-6.5,9.7-6.5,16.2c0,6.2,2,11.4,5.9,15.7c4.5,4.8,10.2,7.1,17.2,7.1     C179.3,608.8,185,606.7,189.9,602.5z" />&#10;			<path
   id="path44"
   class="st4"
   d="M281.6,548v-9h33.6v93.8h-33.6v-10.3c-6.4,9-16.2,13.4-29.2,13.4c-13.1,0-24.4-5-33.8-14.9     c-9-9.5-13.4-21-13.4-34.4c0-15.4,4.8-27.9,14.5-37.6c8.8-8.8,20.1-13.2,33.8-13.2C265,535.8,274.4,539.8,281.6,548z      M261.1,564.3c-5.6,0-10.5,2-14.7,6.1c-4.5,4.3-6.7,9.4-6.7,15.3c0,6.2,2.2,11.3,6.5,15.3c4.5,4.2,9.5,6.3,15.1,6.3     c5.7,0,10.8-2.2,15.1-6.5c4.2-4.2,6.3-9.2,6.3-15.1c0-6-2.2-11.1-6.5-15.3C271.8,566.4,266.8,564.3,261.1,564.3z" />&#10;			<path
   id="path45"
   class="st4"
   d="M397.9,566.4h-23.5v66.3h-33.6v-66.3h-11.8v-27.5h11.8v-15.7c0-12.9,2.9-23.2,8.6-30.9     c7.4-9.9,18.3-14.9,32.5-14.9c5.5,0,10.8,1,16.2,3.1v29c-3.5-2.1-7-3.1-10.5-3.1c-4.2,0-7.4,1.2-9.4,3.6     c-2.5,2.8-3.8,8.1-3.8,15.7v13.2h23.5L397.9,566.4L397.9,566.4z" />&#10;			<path
   id="path46"
   class="st4"
   d="M510.2,588.5v3.6h-69.9c0,6.6,2,11.8,5.9,15.7c3.1,3.1,7.7,4.6,13.9,4.6c4.2,0,7.8-0.8,10.9-2.5     c2.7-1.5,4.6-3.6,5.9-6.3h32.1c-2.1,7.6-5.9,14-11.3,19.3c-9,8.7-21.7,13-38.2,13c-16.4,0-29.3-4.8-38.8-14.3     c-9.2-9.2-13.9-21.1-13.9-35.5c0-15.1,4.7-27.2,14.1-36.3c9.4-9.1,22.2-13.6,38.4-13.6c15,0,27,4.3,36.1,12.8     C505.2,558.5,510.2,571.7,510.2,588.5z M441.4,572.7h38c-1-4.1-2.8-7.4-5.5-10.1c-3.4-3.4-8-5-13.9-5c-5.7,0-10.3,1.7-13.6,5     C443.6,565.7,441.9,569.1,441.4,572.7z" />&#10;			<path
   id="path47"
   class="st4"
   d="M585.7,566.4h-19.1v66.3h-33.6v-66.3h-10.7v-27.5h10.7v-30.9h33.6v30.9h19.1V566.4z" />&#10;			<path
   id="path48"
   class="st4"
   d="M697.8,588.5v3.6h-69.9c0,6.6,2,11.8,5.9,15.7c3.1,3.1,7.7,4.6,13.8,4.6c4.2,0,7.8-0.8,10.9-2.5     c2.7-1.5,4.6-3.6,5.9-6.3h32.1c-2.1,7.6-5.9,14-11.3,19.3c-9,8.7-21.7,13-38.2,13c-16.4,0-29.3-4.8-38.8-14.3     c-9.2-9.2-13.8-21.1-13.8-35.5c0-15.1,4.7-27.2,14.1-36.3c9.4-9.1,22.2-13.6,38.4-13.6c15,0,27,4.3,36.1,12.8     C692.8,558.5,697.8,571.7,697.8,588.5z M629,572.7h38c-1-4.1-2.8-7.4-5.5-10.1c-3.4-3.4-8-5-13.8-5c-5.7,0-10.3,1.7-13.6,5     C631.2,565.7,629.5,569.1,629,572.7z" />&#10;			<path
   id="path49"
   class="st4"
   d="M717.1,632.8v-93.8h33.6v15.3c3.1-5.9,7.5-10.2,13.2-13c4.6-2.5,10.4-3.8,17.4-3.8     c0.3,0,0.6,0,1,0.1c0.4,0.1,1.2,0.1,2.2,0.2s2.2,0.1,3.5,0.1v31.7c-4.5-2.2-9.3-3.4-14.5-3.4c-6.6,0-11.7,1.7-15.3,5     c-5,4.6-7.6,11.8-7.6,21.4v40.1L717.1,632.8L717.1,632.8z" />&#10;			<path
   id="path50"
   class="st4"
   d="M802.5,538.9h33.6v93.8h-33.6V538.9z M831.3,479.8l21.2,15.3l-32.3,28.5l-15.5-11.5L831.3,479.8     z" />&#10;			<path
   id="path51"
   class="st4"
   d="M931.6,548v-9h33.6v93.8h-33.6v-10.3c-6.4,9-16.2,13.4-29.2,13.4c-13.2,0-24.4-5-33.8-14.9     c-9-9.5-13.4-21-13.4-34.4c0-15.4,4.8-27.9,14.5-37.6c8.8-8.8,20.1-13.2,33.8-13.2C915,535.8,924.3,539.8,931.6,548z M911,564.3     c-5.6,0-10.5,2-14.7,6.1c-4.5,4.3-6.7,9.4-6.7,15.3c0,6.2,2.2,11.3,6.5,15.3c4.5,4.2,9.5,6.3,15.1,6.3c5.7,0,10.8-2.2,15.1-6.5     c4.2-4.2,6.3-9.2,6.3-15.1c0-6-2.2-11.1-6.5-15.3C921.8,566.4,916.8,564.3,911,564.3z" />&#10;		</g>&#10;	</g>&#10;	<g
   id="tortas_y_tartas"
   class="st0">&#10;		<g
   id="g64"
   class="st3">&#10;			<path
   id="path52"
   class="st4"
   d="M261.7,435.9h-19.3v67h-33.9v-67h-10.8v-27.8h10.8v-31.2h33.9v31.2h19.3L261.7,435.9     L261.7,435.9z" />&#10;			<path
   id="path53"
   class="st4"
   d="M384.5,455.4c0,13.7-4.9,25.4-14.6,35c-10.6,10.5-24.7,15.7-42.4,15.7     c-17.5,0-31.6-5.2-42.2-15.7c-9.8-9.6-14.6-21.3-14.6-35s4.9-25.3,14.6-34.8c10.7-10.5,24.8-15.7,42.2-15.7     c17.3,0,31.4,5.2,42.4,15.7C379.6,430.1,384.5,441.7,384.5,455.4z M327.6,433.7c-5.8,0-10.9,2-15.3,6.1     c-4.4,4.1-6.6,9.3-6.6,15.5c0,5.7,2.2,10.7,6.6,15.1c4.2,4.2,9.3,6.4,15.3,6.4c5.8,0,10.8-2.1,15.1-6.4c4.4-4.1,6.6-9.1,6.6-15.1     s-2.2-11.1-6.6-15.5C338.3,435.8,333.3,433.7,327.6,433.7z" />&#10;			<path
   id="path54"
   class="st4"
   d="M404,502.9v-94.8h33.9v15.5c3.1-5.9,7.6-10.3,13.4-13.1c4.7-2.5,10.5-3.8,17.6-3.8     c0.3,0,0.6,0,1.1,0.1c0.4,0.1,1.2,0.1,2.2,0.2c1.1,0.1,2.2,0.1,3.5,0.1v32c-4.5-2.3-9.4-3.4-14.6-3.4c-6.6,0-11.8,1.7-15.5,5.1     c-5.1,4.7-7.6,11.9-7.6,21.6v40.5L404,502.9L404,502.9z" />&#10;			<path
   id="path55"
   class="st4"
   d="M550.7,435.9h-19.3v67h-33.9v-67h-10.8v-27.8h10.8v-31.2h33.9v31.2h19.3V435.9z" />&#10;			<path
   id="path56"
   class="st4"
   d="M636.8,417.2v-9.1h33.9v94.8h-33.9v-10.4c-6.5,9-16.3,13.6-29.5,13.6c-13.3,0-24.7-5-34.1-15.1     c-9-9.6-13.6-21.2-13.6-34.8c0-15.5,4.9-28.2,14.6-38c8.9-8.9,20.3-13.4,34.1-13.4C620,404.9,629.5,409,636.8,417.2z M616,433.7     c-5.7,0-10.6,2-14.8,6.1c-4.5,4.4-6.8,9.5-6.8,15.5c0,6.2,2.2,11.4,6.6,15.5c4.5,4.2,9.6,6.4,15.3,6.4c5.8,0,10.9-2.2,15.3-6.6     c4.2-4.2,6.4-9.3,6.4-15.3c0-6.1-2.2-11.2-6.6-15.5C626.9,435.8,621.8,433.7,616,433.7z" />&#10;			<path
   id="path57"
   class="st4"
   d="M688.2,495l12.1-23.5c4.2,3.1,8.8,5.4,13.6,7c4.4,1.6,8.8,2.3,13.2,2.3c4,0,6.9-0.9,8.7-2.5     c1.1-1.1,1.7-2.6,1.7-4.5c0-1.8-0.6-3.3-1.7-4.2c-1.1-1.1-4.1-2.3-8.9-3.4l-8.9-2.1c-7.5-1.7-13-4.5-16.5-8.3     c-4.1-4.4-6.2-9.8-6.2-16.3c0-9.2,3-16.9,8.9-23.1c7.3-7.6,18.7-11.5,33.9-11.5c10.5,0,20.6,2,30.3,6.1l-11.5,21.6     c-6.8-3.1-12.7-4.7-17.8-4.7c-3.1,0-5.7,0.6-7.8,1.9c-2,1.1-3,2.7-3,4.7c0,2.4,1.3,4.2,4,5.3c1.1,0.4,2.9,0.9,5.3,1.4     c2.4,0.5,4.4,1,5.9,1.4l6.2,1.7c6.1,1.7,10.7,4.2,14,7.4c4.8,4.5,7.2,10.8,7.2,18.9c0,9.6-3.2,17.5-9.5,23.5     c-7.9,7.9-19.6,11.9-35,11.9C712.9,506.1,700.2,502.4,688.2,495z" />&#10;			<path
   id="path58"
   class="st4"
   d="M288.2,625.6l20.8,20.2c-5.7,7.2-12.1,14.1-19.3,20.6l31.6,33.5h-45.8l-12.3-12.9     c-14.7,10.7-30.5,16.1-47.5,16.1c-15.1,0-26.7-4-34.8-11.9c-7.6-7.3-11.4-16.7-11.4-28c0-11,3.5-20.1,10.6-27.2     c5.6-5.8,13.4-10.4,23.1-13.8c-3.1-3.7-5.9-7.4-8.3-11.2c-3.3-5.4-4.9-11.2-4.9-17.4c0-9.8,3.6-18.4,10.8-25.9     c8.2-8.3,19.3-12.5,33.3-12.5c13.9,0,24.8,3.9,32.9,11.7c7.5,7.3,11.2,16.2,11.2,26.5c0,8.6-3.3,16.2-9.8,22.7     c-4.8,4.8-10.3,8.5-16.5,11l17.8,18.7C276.5,639.5,282.6,632.8,288.2,625.6z M243,664.6l-22.3-24c-8.9,5.1-13.4,10.6-13.4,16.5     c0,4,1.4,7.1,4.2,9.5c3,2.7,7,4,12.1,4C230.1,670.8,236.5,668.7,243,664.6z M224.8,591.9c0,2.7,1.3,5.9,3.8,9.5     c1.7,2.5,4.2,5.4,7.4,8.5c3-1.5,5.8-3.7,8.5-6.4c3-3.4,4.4-6.9,4.4-10.4c0-4.2-1.3-7.5-3.8-9.8c-2.4-2.1-5.2-3.2-8.5-3.2     s-5.9,1-8.1,3C226,585.4,224.8,588.3,224.8,591.9z" />&#10;			<path
   id="path59"
   class="st4"
   d="M439.2,632.8h-19.3v67h-33.9v-67h-10.8V605h10.8v-31.2h33.9V605h19.3V632.8z" />&#10;			<path
   id="path60"
   class="st4"
   d="M525.3,614.1V605h33.9v94.8h-33.9v-10.4c-6.5,9-16.3,13.6-29.5,13.6c-13.3,0-24.7-5-34.1-15.1     c-9-9.6-13.6-21.2-13.6-34.8c0-15.5,4.9-28.2,14.6-38c8.9-8.9,20.3-13.4,34.1-13.4C508.4,601.8,517.9,606,525.3,614.1z      M504.5,630.7c-5.7,0-10.6,2-14.9,6.2c-4.5,4.4-6.8,9.5-6.8,15.5c0,6.2,2.2,11.4,6.6,15.5c4.5,4.2,9.6,6.4,15.3,6.4     c5.8,0,10.9-2.2,15.3-6.6c4.2-4.2,6.4-9.3,6.4-15.3c0-6.1-2.2-11.2-6.6-15.5C515.4,632.7,510.3,630.7,504.5,630.7z" />&#10;			<path
   id="path61"
   class="st4"
   d="M582.5,699.8V605h33.9v15.5c3.1-5.9,7.6-10.3,13.4-13.2c4.7-2.5,10.5-3.8,17.6-3.8     c0.3,0,0.6,0,1.1,0.1s1.2,0.1,2.2,0.2s2.2,0.1,3.5,0.1v32c-4.5-2.3-9.4-3.4-14.6-3.4c-6.7,0-11.8,1.7-15.5,5.1     c-5.1,4.7-7.6,11.9-7.6,21.6v40.5H582.5z" />&#10;			<path
   id="path62"
   class="st4"
   d="M729.3,632.8H710v67H676v-67h-10.8V605H676v-31.2H710V605h19.3V632.8z" />&#10;			<path
   id="path63"
   class="st4"
   d="M815.4,614.1V605h33.9v94.8h-33.9v-10.4c-6.5,9-16.3,13.6-29.5,13.6c-13.3,0-24.7-5-34.1-15.1     c-9-9.6-13.6-21.2-13.6-34.8c0-15.5,4.9-28.2,14.6-38c8.9-8.9,20.3-13.4,34.1-13.4C798.5,601.8,808,606,815.4,614.1z      M794.6,630.7c-5.7,0-10.6,2-14.8,6.2c-4.5,4.4-6.8,9.5-6.8,15.5c0,6.2,2.2,11.4,6.6,15.5c4.5,4.2,9.6,6.4,15.3,6.4     c5.8,0,10.9-2.2,15.3-6.6c4.2-4.2,6.4-9.3,6.4-15.3c0-6.1-2.2-11.2-6.6-15.5C805.5,632.7,800.4,630.7,794.6,630.7z" />&#10;			<path
   id="path64"
   class="st4"
   d="M866.7,692l12.1-23.5c4.2,3.1,8.8,5.4,13.6,7c4.4,1.6,8.8,2.3,13.2,2.3c4,0,6.9-0.8,8.7-2.5     c1.1-1.1,1.7-2.6,1.7-4.5c0-1.8-0.6-3.3-1.7-4.2c-1.1-1.1-4.1-2.3-8.9-3.4l-8.9-2.1c-7.5-1.7-13-4.5-16.5-8.3     c-4.1-4.4-6.2-9.8-6.2-16.3c0-9.2,3-16.9,8.9-23.1c7.3-7.6,18.7-11.5,33.9-11.5c10.5,0,20.6,2,30.3,6.2l-11.5,21.6     c-6.8-3.1-12.7-4.7-17.8-4.7c-3.1,0-5.7,0.6-7.8,1.9c-2,1.1-3,2.7-3,4.7c0,2.4,1.3,4.2,4,5.3c1.1,0.4,2.9,0.9,5.3,1.4     c2.4,0.5,4.4,1,5.9,1.4l6.2,1.7c6.1,1.7,10.7,4.2,14,7.4c4.8,4.5,7.2,10.8,7.2,18.9c0,9.6-3.2,17.5-9.5,23.5     c-7.9,7.9-19.6,11.9-35,11.9C891.4,703,878.7,699.3,866.7,692z" />&#10;		</g>&#10;	</g>&#10;	<g
   id="bakery"
   class="st0">&#10;		<g
   id="g70"
   class="st3">&#10;			<path
   id="path65"
   class="st4"
   d="M149.6,455.7h38.1v77.3c8.6-9.2,19.1-13.8,31.6-13.8c15.1,0,27.6,4.8,37.6,14.3     c11.6,11,17.4,25,17.4,42.1s-5.7,31.3-17.1,42.4c-10.1,9.8-22.6,14.8-37.4,14.8c-13.5,0-24.2-5.1-32.1-15.2v11.7h-38.1V455.7z      M211,600.4c6.5,0,12.1-2.4,16.9-7.1c4.9-4.9,7.4-10.5,7.4-16.7c0-7.1-2.5-13.2-7.4-18.1c-4.6-4.6-10.2-6.9-16.9-6.9     c-7.1,0-12.9,2.4-17.4,7.1c-4.8,5.1-7.1,10.8-7.1,17.1c0,7.1,2.7,13.2,8.1,18.1C199.5,598.3,205,600.4,211,600.4z" />&#10;			<path
   id="path66"
   class="st4"
   d="M378.5,533.1v-10.2h38.1v106.4h-38.1v-11.7c-7.3,10.2-18.3,15.2-33.1,15.2     c-14.9,0-27.7-5.6-38.3-16.9c-10.1-10.8-15.2-23.8-15.2-39c0-17.5,5.5-31.7,16.4-42.6c10-10,22.8-15,38.3-15     C359.6,519.3,370.3,523.9,378.5,533.1z M355.2,551.6c-6.4,0-11.9,2.3-16.7,6.9c-5.1,4.9-7.6,10.7-7.6,17.4c0,7,2.5,12.8,7.4,17.4     c5.1,4.8,10.8,7.1,17.1,7.1c6.5,0,12.2-2.5,17.1-7.4c4.8-4.8,7.1-10.5,7.1-17.1c0-6.8-2.5-12.6-7.4-17.4     C367.4,553.9,361.7,551.6,355.2,551.6z" />&#10;			<path
   id="path67"
   class="st4"
   d="M442.8,455.7h38.1v105.4l35.9-38.3h51.6l-50.2,49l54.3,57.3h-52.8l-38.8-43.5v43.5h-38.1     L442.8,455.7L442.8,455.7z" />&#10;			<path
   id="path68"
   class="st4"
   d="M693.8,579v4h-79.2c0,7.5,2.2,13.4,6.7,17.8c3.5,3.5,8.7,5.2,15.7,5.2c4.8,0,8.9-1,12.4-2.8     c3-1.7,5.2-4.1,6.7-7.1h36.4c-2.4,8.6-6.7,15.9-12.8,21.9c-10.2,9.8-24.6,14.8-43.3,14.8c-18.6,0-33.2-5.4-44-16.2     c-10.5-10.5-15.7-23.9-15.7-40.2c0-17.1,5.3-30.8,15.9-41.2c10.6-10.3,25.1-15.5,43.5-15.5c17,0,30.6,4.8,40.9,14.5     C688.2,545.1,693.8,560,693.8,579z M615.8,561.2h43.1c-1.1-4.6-3.2-8.4-6.2-11.4c-3.8-3.8-9-5.7-15.7-5.7     c-6.5,0-11.7,1.9-15.5,5.7C618.3,553.2,616.4,557,615.8,561.2z" />&#10;			<path
   id="path69"
   class="st4"
   d="M715.7,629.2V522.8h38.1v17.4c3.5-6.7,8.5-11.6,15-14.8c5.2-2.8,11.8-4.3,19.8-4.3     c0.3,0,0.7,0,1.2,0.1s1.3,0.2,2.5,0.2s2.5,0.1,3.9,0.1v35.9c-5.1-2.5-10.5-3.8-16.4-3.8c-7.5,0-13.3,1.9-17.4,5.7     c-5.7,5.2-8.6,13.3-8.6,24.3v45.5L715.7,629.2L715.7,629.2z" />&#10;			<path
   id="path70"
   class="st4"
   d="M821.6,683.7l35.7-69l-51.4-91.8h44.3l28.3,54.5l27.6-54.5h43.5l-85.4,160.9H821.6z" />&#10;		</g>&#10;	</g>&#10;	<g
   id="combos"
   class="st0">&#10;		<g
   id="g76"
   class="st3">&#10;			<path
   id="path71"
   class="st4"
   d="M193.6,596.4v32.4c-8.2,4-17.1,6-26.8,6c-17.1,0-31.2-5.5-42.5-16.4     c-11.1-10.8-16.7-24.2-16.7-40.3c0-16.6,5.8-30.5,17.4-41.8c11.4-11,25.9-16.4,43.5-16.4c8.7,0,17.1,2,25.1,6v32.4     c-6.6-4.7-13.3-7-20-7c-7.6,0-13.9,2.5-18.8,7.5c-5,5-7.5,11.2-7.5,18.6c0,7.1,2.3,13.1,6.8,18.1c5.1,5.5,11.8,8.2,19.8,8.2     C181.4,603.6,188,601.2,193.6,596.4z" />&#10;			<path
   id="path72"
   class="st4"
   d="M340.9,577c0,15.6-5.5,28.9-16.7,39.8c-12.1,11.9-28.2,17.9-48.3,17.9c-20,0-36-6-48.1-17.9     c-11.1-11-16.7-24.2-16.7-39.8c0-15.6,5.6-28.8,16.7-39.6c12.2-11.9,28.3-17.9,48.1-17.9c19.6,0,35.7,6,48.3,17.9     C335.4,548.2,340.9,561.4,340.9,577z M276.2,552.4c-6.6,0-12.4,2.3-17.4,7c-5,4.7-7.5,10.5-7.5,17.6c0,6.4,2.5,12.2,7.5,17.2     c4.8,4.8,10.6,7.2,17.4,7.2c6.6,0,12.3-2.4,17.1-7.2c5-4.7,7.5-10.4,7.5-17.2c0-6.8-2.5-12.6-7.5-17.6     C288.4,554.8,282.6,552.4,276.2,552.4z" />&#10;			<path
   id="path73"
   class="st4"
   d="M363.1,631.1V523.2h38.6v13c8.2-10,19-15,32.4-15c7.9,0,14.8,1.6,20.8,4.8     c6.4,3.4,11.4,8.5,15,15.5c3.7-6.6,8.6-11.6,14.7-15c6.3-3.5,13.8-5.3,22.5-5.3c13.2,0,23.2,3.3,29.9,9.9     c6.8,6.6,10.1,16.5,10.1,29.7v70.3h-38.6v-53.4c0-11.9-1.9-19.6-5.5-23.2c-2.7-2.4-6.1-3.6-10.1-3.6c-4.5,0-8.3,1.5-11.4,4.3     c-4.7,4.5-7,11.3-7,20.5v55.3h-38.6v-53.4c0-11.9-1.7-19.6-5.1-23.2c-2.7-2.9-6.6-4.3-11.6-4.3c-4.5,0-8,1.3-10.6,3.9     c-4.5,4.3-6.8,12.2-6.8,23.7v53.4L363.1,631.1L363.1,631.1z" />&#10;			<path
   id="path74"
   class="st4"
   d="M573.9,455.1h38.6v78.5c8.7-9.3,19.4-14,32.1-14c15.3,0,28,4.8,38.2,14.5     c11.8,11.1,17.6,25.4,17.6,42.7s-5.8,31.7-17.4,43c-10.3,10-22.9,15-37.9,15c-13.7,0-24.5-5.2-32.6-15.5v11.8h-38.6L573.9,455.1     L573.9,455.1z M636.2,601.9c6.6,0,12.3-2.4,17.2-7.2c5-5,7.5-10.6,7.5-16.9c0-7.2-2.5-13.4-7.5-18.3c-4.7-4.7-10.4-7-17.2-7     c-7.2,0-13.1,2.4-17.6,7.2c-4.8,5.2-7.2,11-7.2,17.4c0,7.2,2.7,13.4,8.2,18.3C624.6,599.8,630.1,601.9,636.2,601.9z" />&#10;			<path
   id="path75"
   class="st4"
   d="M848,577c0,15.6-5.5,28.9-16.7,39.8c-12.1,11.9-28.2,17.9-48.3,17.9c-20,0-36-6-48-17.9     c-11.1-11-16.7-24.2-16.7-39.8c0-15.6,5.5-28.8,16.7-39.6c12.2-11.9,28.3-17.9,48-17.9c19.6,0,35.7,6,48.3,17.9     C842.5,548.2,848,561.4,848,577z M783.3,552.4c-6.6,0-12.4,2.3-17.4,7c-5,4.7-7.5,10.5-7.5,17.6c0,6.4,2.5,12.2,7.5,17.2     c4.8,4.8,10.6,7.2,17.4,7.2c6.6,0,12.3-2.4,17.2-7.2c5-4.7,7.5-10.4,7.5-17.2c0-6.8-2.5-12.6-7.5-17.6     C795.5,554.8,789.7,552.4,783.3,552.4z" />&#10;			<path
   id="path76"
   class="st4"
   d="M863.5,622.2l13.8-26.8c4.8,3.5,10,6.2,15.5,8c5,1.8,10,2.7,15,2.7c4.5,0,7.8-1,9.9-2.9     c1.3-1.3,1.9-3,1.9-5.1s-0.7-3.7-1.9-4.8c-1.3-1.3-4.7-2.6-10.1-3.9l-10.1-2.4c-8.5-1.9-14.8-5.1-18.8-9.4c-4.7-5-7-11.2-7-18.6     c0-10.5,3.4-19.2,10.1-26.3c8.4-8.7,21.3-13,38.6-13c11.9,0,23.4,2.3,34.5,7l-13,24.6c-7.7-3.5-14.5-5.3-20.3-5.3     c-3.5,0-6.5,0.7-8.9,2.2c-2.3,1.3-3.4,3.1-3.4,5.3c0,2.7,1.5,4.8,4.6,6c1.3,0.5,3.3,1,6,1.6c2.7,0.6,5,1.1,6.8,1.6l7,1.9     c6.9,1.9,12.2,4.8,15.9,8.5c5.5,5.2,8.2,12.3,8.2,21.5c0,11-3.6,19.9-10.9,26.8c-9,9-22.3,13.5-39.8,13.5     C891.6,634.8,877.2,630.6,863.5,622.2z" />&#10;		</g>&#10;	</g>&#10;</g>&#10;<g
   id="Capa_2"
   transform="translate(-9.3770961)">&#10;	<g
   class="st5"
   id="g78">&#10;		<path
   class="st4"
   d="m 135.1,423.2 c -3.2,-3.2 -4.8,-7 -4.8,-11.4 0,-4.4 1.6,-8.2 4.8,-11.4 3.2,-3.2 7,-4.8 11.4,-4.8 4.4,0 8.2,1.6 11.4,4.8 3.2,3.2 4.8,7 4.8,11.4 0,4.4 -1.6,8.3 -4.8,11.4 -3.2,3.2 -7,4.8 -11.4,4.8 -4.4,0 -8.2,-1.6 -11.4,-4.8 z m -2.9,22.1 H 161 v 80.5 h -28.8 z"
   id="path1" />&#10;		<path
   class="st4"
   d="m 180.6,525.7 v -80.5 h 28.8 v 10.1 c 6,-7.9 14.5,-11.9 25.6,-11.9 10.1,0 18,2.9 23.8,8.6 3.1,3.1 5.2,6.4 6.1,9.7 1,3.4 1.4,7.6 1.4,12.8 v 51.1 H 237.5 V 485 c 0,-7.9 -1.2,-13.1 -3.6,-15.7 -2.2,-2.3 -5.2,-3.4 -9.2,-3.4 -4.3,0 -7.9,1.3 -10.6,3.8 -3.1,2.9 -4.7,7.1 -4.7,12.8 v 43.2 z"
   id="path33" />&#10;		<path
   class="st4"
   d="m 337,468.8 h -20.2 v 56.9 H 288 v -56.9 h -10 v -23.6 h 10.1 v -13.5 c 0,-11 2.5,-19.9 7.4,-26.5 6.4,-8.5 15.7,-12.8 27.9,-12.8 4.7,0 9.3,0.9 13.9,2.7 v 24.8 c -3,-1.8 -6,-2.7 -9,-2.7 -3.6,0 -6.3,1 -8.1,3.1 -2.2,2.4 -3.2,6.9 -3.2,13.5 v 11.3 h 20 z"
   id="path34" />&#10;		<path
   class="st4"
   d="m 348,445.3 h 28.8 v 45 c 0,5.2 1.4,9.1 4.3,11.7 2.3,2 5.6,3.1 10.1,3.1 4.4,0 7.9,-1.1 10.3,-3.4 2.8,-2.8 4.1,-6.5 4.1,-11.3 v -45 h 28.8 v 50.2 c 0,9.1 -2.6,16.3 -7.7,21.6 -7.3,7.6 -18.9,11.3 -34.7,11.3 -17,0 -29.2,-3.8 -36.4,-11.5 -5,-5.3 -7.6,-12.4 -7.6,-21.4 z"
   id="path35" />&#10;		<path
   class="st4"
   d="m 449.1,519.1 10.3,-20 c 3.6,2.6 7.4,4.6 11.5,5.9 3.7,1.3 7.4,2 11.2,2 3.4,0 5.8,-0.7 7.4,-2.2 1,-1 1.4,-2.2 1.4,-3.8 0,-1.6 -0.5,-2.8 -1.4,-3.6 -1,-1 -3.5,-1.9 -7.6,-2.9 l -7.6,-1.8 c -6.4,-1.4 -11,-3.8 -14,-7 -3.5,-3.7 -5.2,-8.3 -5.2,-13.9 0,-7.8 2.5,-14.3 7.6,-19.6 6.2,-6.5 15.8,-9.7 28.8,-9.7 8.9,0 17.5,1.7 25.7,5.2 l -9.7,18.4 c -5.8,-2.6 -10.8,-4 -15.1,-4 -2.6,0 -4.9,0.5 -6.7,1.6 -1.7,1 -2.5,2.3 -2.5,4 0,2 1.1,3.5 3.4,4.5 1,0.4 2.5,0.8 4.5,1.2 2,0.4 3.7,0.8 5,1.2 l 5.2,1.4 c 5.2,1.4 9.1,3.5 11.9,6.3 4.1,3.8 6.1,9.2 6.1,16 0,8.2 -2.7,14.8 -8.1,20 -6.7,6.7 -16.6,10.1 -29.7,10.1 -11.4,0 -22.2,-3.1 -32.4,-9.3 z"
   id="path36" />&#10;		<path
   class="st4"
   d="m 537.1,423.2 c -3.2,-3.2 -4.8,-7 -4.8,-11.4 0,-4.4 1.6,-8.2 4.8,-11.4 3.2,-3.2 7,-4.8 11.4,-4.8 4.4,0 8.2,1.6 11.4,4.8 3.2,3.2 4.8,7 4.8,11.4 0,4.4 -1.6,8.3 -4.8,11.4 -3.2,3.2 -7,4.8 -11.4,4.8 -4.4,0 -8.2,-1.6 -11.4,-4.8 z m -3,22.1 h 28.8 v 80.5 h -28.8 z"
   id="path37" />&#10;		<path
   class="st4"
   d="m 675.9,485.4 c 0,11.6 -4.1,21.5 -12.4,29.7 -9,8.9 -21,13.3 -36,13.3 -14.9,0 -26.8,-4.4 -35.8,-13.3 -8.3,-8.2 -12.4,-18.1 -12.4,-29.7 0,-11.6 4.1,-21.5 12.4,-29.5 9.1,-8.9 21.1,-13.3 35.8,-13.3 14.6,0 26.6,4.4 36,13.3 8.3,8 12.4,17.9 12.4,29.5 z M 627.7,467 c -4.9,0 -9.2,1.7 -13,5.2 -3.7,3.5 -5.6,7.9 -5.6,13.1 0,4.8 1.9,9.1 5.6,12.8 3.6,3.6 7.9,5.4 13,5.4 4.9,0 9.2,-1.8 12.8,-5.4 3.7,-3.5 5.6,-7.7 5.6,-12.8 0,-5.1 -1.9,-9.4 -5.6,-13.1 -3.7,-3.4 -8,-5.2 -12.8,-5.2 z"
   id="path38" />&#10;		<path
   class="st4"
   d="m 692.5,525.7 v -80.5 h 28.8 v 10.1 c 6,-7.9 14.5,-11.9 25.6,-11.9 10.1,0 18,2.9 23.8,8.6 3.1,3.1 5.2,6.4 6.1,9.7 1,3.4 1.4,7.6 1.4,12.8 v 51.1 H 749.4 V 485 c 0,-7.9 -1.2,-13.1 -3.6,-15.7 -2.2,-2.3 -5.2,-3.4 -9.2,-3.4 -4.3,0 -7.9,1.3 -10.6,3.8 -3.1,2.9 -4.7,7.1 -4.7,12.8 v 43.2 z"
   id="path39" />&#10;		<path
   class="st4"
   d="m 883.1,487.7 v 3.1 h -59.9 c 0,5.6 1.7,10.1 5,13.5 2.6,2.6 6.6,4 11.9,4 3.6,0 6.7,-0.7 9.4,-2.2 2.3,-1.3 4,-3.1 5,-5.4 H 882 c -1.8,6.5 -5,12 -9.7,16.6 -7.7,7.4 -18.6,11.2 -32.8,11.2 -14,0 -25.1,-4.1 -33.3,-12.2 -7.9,-7.9 -11.9,-18.1 -11.9,-30.4 0,-13 4,-23.3 12.1,-31.1 8,-7.8 19,-11.7 32.9,-11.7 12.8,0 23.2,3.7 31,11 8.6,8 12.8,19.2 12.8,33.6 z m -59,-13.5 h 32.6 c -0.8,-3.5 -2.4,-6.4 -4.7,-8.6 -2.9,-2.9 -6.8,-4.3 -11.9,-4.3 -4.9,0 -8.8,1.4 -11.7,4.3 -2.4,2.6 -3.8,5.5 -4.3,8.6 z"
   id="path40" />&#10;		<path
   class="st4"
   d="m 894.6,519.1 10.3,-20 c 3.6,2.6 7.4,4.6 11.5,5.9 3.7,1.3 7.4,2 11.2,2 3.4,0 5.8,-0.7 7.4,-2.2 1,-1 1.4,-2.2 1.4,-3.8 0,-1.6 -0.5,-2.8 -1.4,-3.6 -1,-1 -3.5,-1.9 -7.6,-2.9 l -7.6,-1.8 c -6.4,-1.4 -11,-3.8 -14,-7 -3.5,-3.7 -5.2,-8.3 -5.2,-13.9 0,-7.8 2.5,-14.3 7.6,-19.6 6.2,-6.5 15.8,-9.7 28.8,-9.7 8.9,0 17.5,1.7 25.7,5.2 l -9.7,18.4 c -5.8,-2.6 -10.8,-4 -15.1,-4 -2.6,0 -4.9,0.5 -6.7,1.6 -1.7,1 -2.5,2.3 -2.5,4 0,2 1.1,3.5 3.4,4.5 1,0.4 2.5,0.8 4.5,1.2 2,0.4 3.7,0.8 5,1.2 l 5.2,1.4 c 5.2,1.4 9.1,3.5 11.9,6.3 4.1,3.8 6.1,9.2 6.1,16 0,8.2 -2.7,14.8 -8.1,20 -6.7,6.7 -16.6,10.1 -29.7,10.1 -11.4,0 -22.2,-3.1 -32.4,-9.3 z"
   id="path41" />&#10;		<path
   class="st4"
   d="m 505.5,678.7 17.6,17.1 c -4.8,6.1 -10.3,11.9 -16.4,17.5 l 26.8,28.4 h -38.9 l -10.4,-11 c -12.5,9.1 -25.9,13.7 -40.3,13.7 -12.8,0 -22.7,-3.4 -29.5,-10.1 -6.5,-6.2 -9.7,-14.2 -9.7,-23.8 0,-9.4 3,-17 9,-23 4.8,-4.9 11.3,-8.8 19.6,-11.7 -2.6,-3.1 -5,-6.3 -7,-9.5 -2.8,-4.6 -4.1,-9.5 -4.1,-14.8 0,-8.3 3.1,-15.6 9.2,-22 7,-7.1 16.4,-10.6 28.3,-10.6 11.8,0 21.1,3.3 27.9,9.9 6.4,6.2 9.5,13.7 9.5,22.5 0,7.3 -2.8,13.7 -8.3,19.3 -4.1,4.1 -8.8,7.2 -14,9.4 l 15.1,15.8 c 5.7,-5.3 10.9,-11 15.6,-17.1 z m -38.4,33.1 -18.9,-20.3 c -7.6,4.3 -11.3,9 -11.3,14 0,3.4 1.2,6.1 3.6,8.1 2.5,2.3 5.9,3.4 10.3,3.4 5.4,0.1 10.8,-1.7 16.3,-5.2 z m -15.4,-61.7 c 0,2.3 1.1,5 3.2,8.1 1.4,2.2 3.5,4.6 6.3,7.2 2.5,-1.3 4.9,-3.1 7.2,-5.4 2.5,-2.9 3.8,-5.8 3.8,-8.8 0,-3.6 -1.1,-6.4 -3.2,-8.3 -2,-1.8 -4.4,-2.7 -7.2,-2.7 -2.8,0 -5,0.8 -6.8,2.5 -2.3,1.9 -3.3,4.4 -3.3,7.4 z"
   id="path42" />&#10;		<path
   class="st4"
   d="m 633.6,684.8 h -16.4 v 56.9 h -28.8 v -56.9 h -9.2 v -23.6 h 9.2 v -26.5 h 28.8 v 26.5 h 16.4 z"
   id="path77" />&#10;		<path
   class="st4"
   d="m 729.8,703.7 v 3.1 h -59.9 c 0,5.6 1.7,10.1 5,13.5 2.6,2.6 6.6,4 11.9,4 3.6,0 6.7,-0.7 9.4,-2.2 2.3,-1.3 4,-3.1 5,-5.4 h 27.5 c -1.8,6.5 -5,12 -9.7,16.6 -7.7,7.4 -18.6,11.2 -32.8,11.2 -14,0 -25.1,-4.1 -33.3,-12.2 -7.9,-7.9 -11.9,-18.1 -11.9,-30.4 0,-13 4,-23.3 12.1,-31.1 8,-7.8 19,-11.7 32.9,-11.7 12.8,0 23.2,3.7 31,11 8.5,8 12.8,19.2 12.8,33.6 z m -59.1,-13.5 h 32.6 c -0.8,-3.5 -2.4,-6.4 -4.7,-8.6 -2.9,-2.9 -6.8,-4.3 -11.9,-4.3 -4.9,0 -8.8,1.4 -11.7,4.3 -2.4,2.6 -3.8,5.5 -4.3,8.6 z m 25.6,-79.7 18.2,13.1 -27.7,24.5 -13.3,-9.9 z"
   id="path78" />&#10;	</g>&#10;</g>&#10;</svg>
